<svg xmlns="http://www.w3.org/2000/svg" width="300" height="310" viewBox="0 0 300 310"><path fill="none" stroke="#000" d="M60 240h240M60 222h240M60 204h240M60 186h240M60 168h240M60 150h240M60 132h240M60 114h240M60 96h240M60 78h240M60 60h240" opacity=".3"/><path fill="#8af281" stroke="#0d923f" d="M76.744 240v-90h39.07v90" stroke-width="2"/><path fill="#8af281" stroke="#000" d="M96.28 246v-6" stroke-width="2"/><path fill="#c6b9fc" stroke="#543b78" d="M132.558 240v-54h39.07v54" stroke-width="2"/><path fill="#c6b9fc" stroke="#000" d="M152.093 246v-6" stroke-width="2"/><path fill="#26edd5" stroke="#208170" d="M188.372 240V78h39.07v162" stroke-width="2"/><path fill="#26edd5" stroke="#000" d="M207.907 246v-6" stroke-width="2"/><path fill="#ff92c6" stroke="#9e034e" d="M244.186 240V132h39.07v108" stroke-width="2"/><path fill="#ff92c6" stroke="#000" d="M263.721 246v-6M60 240h240M60 240V60" stroke-width="2"/></svg>
